# xmcd
#
# Track frame offsets:
#	182
#	14260
#	31505
#	47020
#	61450
#	74930
#	84962
#	100345
#	112297
#	125615
#	137485
#	151230
#	162220
#	173527
#	186785
#
# Disc length: 2793 seconds
#
# Revision: 0
# Processed by: cddbd v1.5.2PL0 Copyright (c) Steve Scherf et al.
# Submitted via: FairStars CD Ripper 1.60
#
DISCID=c40ae70f
DTITLE=Andy Williams - The very best 2
DYEAR=1978
DGENRE=Country
TTITLE0=I left my heart in San Fransisco
TTITLE1=By the time I get to Phoenix
TTITLE2=Didn't we
TTITLE3=On the street where you live
TTITLE4=Somethin' stupid
TTITLE5=Snowbird
TTITLE6=What kind of fool am I
TTITLE7=Tonight
TTITLE8=Dear Heart
TTITLE9=Music to watch girls by
TTITLE10=Love theme from the Godfather
TTITLE11=Can't get used to losing you
TTITLE12=The Hawaiian wedding song
TTITLE13=Feelings
TTITLE14=MacArthur Park
EXTD=
EXTT0=
EXTT1=
EXTT2=
EXTT3=
EXTT4=
EXTT5=
EXTT6=
EXTT7=
EXTT8=
EXTT9=
EXTT10=
EXTT11=
EXTT12=
EXTT13=
EXTT14=
PLAYORDER=
